<svg xmlns="http://www.w3.org/2000/svg" viewBox="0 0 400 132" preserveAspectRatio="xMidYMid slice" role="img" aria-label="Woodcut of a marching host of pikemen">
  <rect width="400" height="132" fill="#cdbb92"/>
  <g stroke="#18110e" stroke-width="1" opacity="0.32">
    <line x1="10" y1="8" x2="46" y2="20"/><line x1="120" y1="6" x2="156" y2="20"/>
    <line x1="260" y1="6" x2="296" y2="20"/><line x1="350" y1="8" x2="392" y2="20"/>
  </g>
  <g stroke="#18110e" stroke-width="2.2">
    <line x1="40" y1="100" x2="34" y2="34"/><line x1="64" y1="100" x2="60" y2="28"/>
    <line x1="92" y1="100" x2="90" y2="36"/><line x1="120" y1="100" x2="116" y2="26"/>
    <line x1="150" y1="100" x2="150" y2="34"/><line x1="180" y1="100" x2="178" y2="24"/>
    <line x1="210" y1="100" x2="208" y2="36"/><line x1="240" y1="100" x2="238" y2="28"/>
    <line x1="270" y1="100" x2="270" y2="34"/><line x1="300" y1="100" x2="298" y2="26"/>
    <line x1="330" y1="100" x2="328" y2="36"/><line x1="360" y1="100" x2="360" y2="30"/>
  </g>
  <g fill="#18110e">
    <rect x="30" y="92" width="14" height="22"/><circle cx="37" cy="86" r="6"/>
    <rect x="58" y="92" width="14" height="22"/><circle cx="65" cy="86" r="6"/>
    <rect x="86" y="92" width="14" height="22"/><circle cx="93" cy="86" r="6"/>
    <rect x="114" y="92" width="14" height="22"/><circle cx="121" cy="86" r="6"/>
    <rect x="160" y="92" width="14" height="22"/><circle cx="167" cy="86" r="6"/>
    <rect x="218" y="92" width="14" height="22"/><circle cx="225" cy="86" r="6"/>
    <rect x="276" y="92" width="14" height="22"/><circle cx="283" cy="86" r="6"/>
    <rect x="320" y="92" width="14" height="22"/><circle cx="327" cy="86" r="6"/>
  </g>
  <g fill="#18110e" opacity="0.55">
    <rect x="138" y="96" width="11" height="18"/><circle cx="143" cy="91" r="5"/>
    <rect x="196" y="96" width="11" height="18"/><circle cx="201" cy="91" r="5"/>
    <rect x="248" y="96" width="11" height="18"/><circle cx="253" cy="91" r="5"/>
    <rect x="300" y="96" width="11" height="18"/><circle cx="305" cy="91" r="5"/>
    <rect x="352" y="96" width="11" height="18"/><circle cx="357" cy="91" r="5"/>
  </g>
  <line x1="0" y1="114" x2="400" y2="114" stroke="#18110e" stroke-width="3"/>
  <g stroke="#18110e" stroke-width="1" opacity="0.5">
    <line x1="0" y1="120" x2="400" y2="120"/><line x1="0" y1="126" x2="400" y2="126"/>
  </g>
  <g stroke="#cdbb92" stroke-width="1.4">
    <line x1="33" y1="98" x2="41" y2="98"/><line x1="61" y1="98" x2="69" y2="98"/>
    <line x1="89" y1="98" x2="97" y2="98"/><line x1="117" y1="98" x2="125" y2="98"/>
  </g>
</svg>
